<?xml version="1.0" encoding="UTF-8" standalone="no"?>
<!DOCTYPE svg PUBLIC "-//W3C//DTD SVG 1.1//EN" "http://www.w3.org/Graphics/SVG/1.1/DTD/svg11.dtd">
<svg width="100%" height="100%" viewBox="0 0 3319 2319" version="1.1" xmlns="http://www.w3.org/2000/svg" xmlns:xlink="http://www.w3.org/1999/xlink" xml:space="preserve" xmlns:serif="http://www.serif.com/" style="fill-rule:evenodd;clip-rule:evenodd;stroke-linecap:round;stroke-linejoin:round;">
    <g transform="matrix(1.95556,0,0,1.95652,-2263.64,-1899.01)">
        <path d="M1976.23,1200.75C2183.33,1200.75 2351.47,1372.62 2351.47,1584.32C2351.47,1796.02 2183.33,1967.9 1976.23,1967.9C1769.14,1967.9 1601,1796.02 1601,1584.32C1601,1372.62 1769.14,1200.75 1976.23,1200.75ZM1976.23,1457.87C2044.51,1457.87 2099.93,1514.53 2099.93,1584.32C2099.93,1654.11 2044.51,1710.77 1976.23,1710.77C1907.96,1710.77 1852.53,1654.11 1852.53,1584.32C1852.53,1514.53 1907.96,1457.87 1976.23,1457.87Z" style="fill:rgb(133,169,244);"/>
    </g>
    <g id="Layer1">
        <g transform="matrix(1.84369,0.0201272,0.006727,-0.616206,-1267.01,1461.44)">
            <path d="M2084.64,1667.71C1794.4,1670.8 1885.91,1611.21 1934.54,1400.88C1983.18,1190.54 2256.21,1381.23 2234.73,1667.71" style="fill:rgb(57,69,208);"/>
        </g>
        <g transform="matrix(0.716828,-0.801838,0.745227,0.666218,-641.349,2733.06)">
            <path d="M2201.38,1350.84C2457.07,1314.95 2381.92,1388.79 2401.58,1191.22C2421.34,992.526 2462.5,968.998 2318.12,1000.62C2198.99,1026.72 2201.68,1175.2 2201.38,1200.75" style="fill:rgb(52,62,189);"/>
        </g>
        <g transform="matrix(0.709784,0.882504,-0.650743,0.523382,1236.15,-1577.56)">
            <path d="M2634.98,1684.38C2883.35,1684.65 2877.73,1610.08 2868.46,1367.52C2859.19,1124.96 2857.48,1170.17 2751.72,1267.46C2656.9,1354.67 2675.13,1313.35 2651.66,1484.26" style="fill:rgb(59,71,212);"/>
        </g>
        <g transform="matrix(-0.872519,0.293498,0.266252,0.791521,4202.07,-824.214)">
            <path d="M2634.98,1684.38C2883.35,1684.65 2877.73,1610.08 2868.46,1367.52C2859.19,1124.96 2857.48,1170.17 2751.72,1267.46C2656.9,1354.67 2675.13,1313.35 2651.66,1484.26" style="fill:rgb(57,69,208);"/>
        </g>
        <g transform="matrix(0.869034,0.793256,-0.605296,0.663119,955.67,-2104.85)">
            <path d="M2634.98,1684.38C2883.35,1684.65 2814.03,1599.67 2868.46,1367.52C2923.78,1131.6 2877.15,1142.66 2751.72,1267.46C2659.46,1359.26 2675.13,1313.35 2651.66,1484.26" style="fill:rgb(60,69,185);"/>
        </g>
        <g transform="matrix(-0.586582,0.330438,0.477733,0.848056,3175.8,-1298.53)">
            <path d="M2634.98,1684.38C2883.35,1684.65 2871.47,1634.72 2880.3,1392.15C2888.08,1178.16 2820.22,1156.86 2751.72,1267.46C2689.59,1367.77 2675.13,1313.35 2651.66,1484.26" style="fill:rgb(57,69,208);"/>
        </g>
        <g transform="matrix(-0.71947,-0.501723,0.425224,-0.609771,4177.69,2548.98)">
            <path d="M2651.66,733.792C2708.82,674.322 2717.11,678.371 2753.32,516.99C2815.87,238.179 2770.3,281.387 2618.3,383.573C2525.38,446.042 2530.08,496.053 2501.56,583.698C2418.42,839.199 2379.24,844.901 2568.27,783.823" style="fill:rgb(57,69,208);"/>
        </g>
        <g transform="matrix(-0.708747,0.211426,0.248426,0.832779,3973.01,-2.29813)">
            <path d="M2651.66,733.792C2708.82,674.322 2688.23,671.667 2753.32,516.99C2854.46,276.62 2842.51,254.454 2618.3,383.573C2520.23,440.05 2530.08,496.053 2501.56,583.698C2418.42,839.199 2379.24,844.901 2568.27,783.823" style="fill:rgb(60,69,183);"/>
        </g>
        <g transform="matrix(0.814458,0.407257,-0.335847,0.671648,456.696,-179.337)">
            <path d="M2651.66,733.792C2708.82,674.322 2681.02,659.419 2753.32,516.99C2866.8,293.412 2770.3,281.387 2618.3,383.573C2525.38,446.042 2501.91,417.724 2473.39,505.369C2390.24,760.87 2379.24,844.901 2568.27,783.823" style="fill:rgb(57,69,208);"/>
        </g>
        <g transform="matrix(-0.459382,0.683357,-0.634379,-0.426457,3847.44,-810.811)">
            <path d="M2651.66,733.792C2708.82,674.322 2717.11,678.371 2753.32,516.99C2815.87,238.179 2770.3,281.387 2618.3,383.573C2525.38,446.042 2530.08,496.053 2501.56,583.698C2418.42,839.199 2379.24,844.901 2568.27,783.823" style="fill:rgb(57,69,208);"/>
        </g>
        <g transform="matrix(-0.236385,1.00722,-0.697596,-0.163719,3155.14,-1227.56)">
            <path d="M2651.66,733.792C2708.82,674.322 2717.11,678.371 2753.32,516.99C2815.87,238.179 2770.3,281.387 2618.3,383.573C2525.38,446.042 2530.08,496.053 2501.56,583.698C2418.42,839.199 2379.24,844.901 2568.27,783.823" style="fill:rgb(58,68,192);"/>
        </g>
        <g transform="matrix(0.944338,0.398685,-0.277918,0.658286,35.102,27.4263)">
            <path d="M2651.66,733.792C2708.82,674.322 2696.93,665.982 2753.32,516.99C2847.11,269.169 2770.3,281.387 2618.3,383.573C2525.38,446.042 2530.08,496.053 2501.56,583.698C2418.42,839.199 2379.24,844.901 2568.27,783.823" style="fill:rgb(41,53,187);"/>
        </g>
        <g transform="matrix(-1.16532,-0.257139,-0.17924,0.812292,5181.09,1717.29)">
            <path d="M2651.66,733.792C2708.82,674.322 2717.11,678.371 2753.32,516.99C2815.87,238.179 2770.3,281.387 2618.3,383.573C2525.38,446.042 2515.92,456.339 2501.56,583.698C2470.18,862.053 2379.24,844.901 2568.27,783.823" style="fill:rgb(57,69,208);"/>
        </g>
        <g transform="matrix(0.94514,0.654841,-0.392532,0.566546,-63.7684,-269.968)">
            <path d="M2651.66,733.792C2708.82,674.322 2717.11,678.371 2753.32,516.99C2815.87,238.179 2770.3,281.387 2618.3,383.573C2525.38,446.042 2525.17,492.075 2501.56,583.698C2427.05,872.926 2463.8,992.424 2568.27,783.823" style="fill:rgb(57,69,208);"/>
        </g>
        <g transform="matrix(0.147198,-0.0742436,0.550906,1.09225,487.995,-38.5581)">
            <rect x="1510.48" y="1433.85" width="259.163" height="508.167" style="fill:white;"/>
        </g>
        <g transform="matrix(-0.981894,-0.189434,0.189434,-0.981894,4493.67,1338.59)">
            <path d="M1658.77,535.188C1924.11,502.048 2384.45,488.131 2409.35,197.722C2411.36,174.35 2461.9,615.774 2460.8,585.869" style="fill:white;"/>
        </g>
        <path d="M2103.78,925.8L2426.07,450.281" style="fill:none;"/>
    </g>
    <g id="Sword.svg" transform="matrix(13.1103,0,0,13.1103,1334.17,1059.54)">
        <g id="Layer2">
            <g id="Sword.svg1" serif:id="Sword.svg" transform="matrix(1,0,0,1,-46,-86.5)">
                <g>
                    <path d="M38.53,32.743L38.55,32.733L38.568,32.725L38.603,32.708L38.621,32.7L38.639,32.692L38.657,32.684L38.675,32.676L38.694,32.669L38.712,32.662L38.73,32.655L38.749,32.648L38.767,32.641L38.804,32.629L38.823,32.623L38.842,32.617L38.861,32.611L38.88,32.606L38.898,32.6L38.917,32.595L38.936,32.59L38.956,32.585L38.994,32.576L39.013,32.572L39.032,32.568L39.052,32.564L39.071,32.561L39.09,32.557L39.109,32.554L39.129,32.551L39.148,32.548L39.187,32.543L39.207,32.541L39.227,32.539L39.246,32.537L39.266,32.535L39.285,32.534L39.324,32.532L39.344,32.531L39.364,32.53L39.383,32.529L39.423,32.529L39.442,32.529L39.462,32.53L39.482,32.53L39.501,32.531L39.541,32.533L39.56,32.534L39.58,32.536L39.599,32.537L39.619,32.539L39.638,32.541L39.677,32.546L39.716,32.551L39.755,32.558L39.775,32.561L39.813,32.569L39.832,32.572L39.852,32.577L39.871,32.581L39.909,32.59L39.928,32.595L39.947,32.601L39.966,32.606L39.985,32.611L40.022,32.623L40.041,32.629L40.06,32.635L40.078,32.642L40.115,32.655L40.133,32.662L40.152,32.67L40.17,32.677L40.188,32.685L40.206,32.692L40.224,32.7L40.242,32.708L40.278,32.725L40.313,32.743L40.33,32.752L40.347,32.761L40.365,32.77L40.382,32.78L40.399,32.789L40.416,32.799L40.433,32.809L40.45,32.819L40.467,32.83L40.483,32.84L40.5,32.851L40.516,32.862L40.532,32.873L40.548,32.884L40.565,32.895L40.58,32.907L40.596,32.919L40.628,32.942L40.643,32.955L40.658,32.967L40.673,32.979L40.689,32.992L40.704,33.005L40.718,33.017L40.748,33.044L40.776,33.07L40.805,33.098L40.819,33.112L40.832,33.126L40.846,33.14L40.859,33.154L40.886,33.183L40.899,33.198L40.912,33.213L40.925,33.228L40.937,33.243L40.95,33.258L40.962,33.273L40.974,33.289L40.986,33.304L40.998,33.32L41.01,33.336L41.032,33.368L41.044,33.384L41.055,33.4L41.065,33.417L41.076,33.433L41.087,33.45L41.097,33.467L41.107,33.483L41.117,33.5L41.127,33.517L41.137,33.534L41.146,33.552L41.156,33.569L41.165,33.586L41.174,33.604L41.183,33.621L41.191,33.639L41.2,33.657L41.216,33.692L41.224,33.71L41.239,33.747L41.247,33.765L41.254,33.783L41.268,33.82L41.281,33.857L41.287,33.876L41.293,33.894L41.299,33.913L41.305,33.932L41.316,33.969L41.321,33.988L41.326,34.007L41.331,34.027L41.335,34.046L41.34,34.065L41.344,34.084L41.348,34.103L41.352,34.123L41.355,34.142L41.362,34.181L41.368,34.219L41.373,34.258L41.375,34.278L41.377,34.298L41.379,34.317L41.381,34.337L41.384,34.376L41.385,34.395L41.386,34.415L41.386,34.435L41.387,34.454L41.387,34.474L41.387,34.494L41.387,34.513L41.387,34.553L41.386,34.572L41.385,34.592L41.383,34.631L41.381,34.651L41.378,34.69L41.373,34.729L41.371,34.748L41.365,34.787L41.362,34.807L41.359,34.826L41.356,34.846L41.352,34.865L41.348,34.884L41.344,34.903L41.34,34.923L41.336,34.942L41.331,34.961L41.326,34.98L41.322,34.999L41.316,35.018L41.306,35.056L41.3,35.075L41.294,35.093L41.282,35.131L41.269,35.168L41.262,35.186L41.255,35.204L41.247,35.223L41.24,35.241L41.233,35.259L41.225,35.277L41.217,35.295L41.209,35.313L41.201,35.331L41.183,35.366L41.175,35.384L41.166,35.401L41.157,35.419L41.147,35.436L41.138,35.453L41.128,35.47L41.118,35.487L41.108,35.504L41.088,35.538L41.077,35.554L41.066,35.571L41.045,35.603L41.033,35.62L41.022,35.636L41.011,35.652L40.999,35.667L40.987,35.683L40.975,35.699L40.963,35.714L40.938,35.745L40.926,35.76L40.913,35.775L40.9,35.79L40.887,35.805L40.874,35.819L40.861,35.834L40.847,35.848L40.834,35.862L40.82,35.876L40.806,35.89L40.792,35.904L40.778,35.917L40.763,35.931L40.749,35.944L40.734,35.957L40.72,35.971L40.705,35.983L40.675,36.009L40.66,36.021L40.644,36.033L40.629,36.046L40.613,36.058L40.598,36.07L40.566,36.093L40.55,36.104L40.534,36.115L40.517,36.126L40.501,36.137L40.485,36.148L40.468,36.158L40.451,36.169L40.435,36.179L40.418,36.189L40.401,36.199L40.384,36.209L40.349,36.228L40.332,36.237L40.314,36.246L28.483,42.274L33.376,48.604L30.301,50.171L32.927,55.325L48.866,86.607L62.92,114.19L87.3,162.039L87.302,162.042L87.311,162.059L87.328,162.095L87.336,162.113L87.344,162.13L87.352,162.148L87.36,162.167L87.375,162.203L87.382,162.221L87.389,162.24L87.402,162.276L87.415,162.314L87.421,162.332L87.427,162.351L87.433,162.37L87.438,162.389L87.449,162.427L87.458,162.465L87.463,162.484L87.472,162.522L87.476,162.541L87.483,162.58L87.486,162.599L87.49,162.619L87.493,162.638L87.498,162.677L87.503,162.716L87.507,162.755L87.51,162.794L87.511,162.814L87.513,162.853L87.514,162.873L87.514,162.893L87.515,162.912L87.515,162.932L87.515,162.952L87.514,162.971L87.514,162.991L87.513,163.011L87.512,163.03L87.511,163.05L87.51,163.069L87.508,163.089L87.507,163.109L87.505,163.128L87.503,163.148L87.498,163.187L87.492,163.226L87.486,163.264L87.483,163.284L87.479,163.303L87.475,163.322L87.471,163.342L87.467,163.361L87.458,163.399L87.453,163.418L87.443,163.456L87.432,163.494L87.427,163.513L87.421,163.531L87.415,163.55L87.408,163.569L87.402,163.587L87.395,163.606L87.388,163.624L87.381,163.643L87.374,163.661L87.367,163.679L87.351,163.715L87.344,163.733L87.335,163.751L87.327,163.769L87.319,163.787L87.31,163.804L87.301,163.822L87.292,163.839L87.283,163.857L87.264,163.891L87.245,163.925L87.235,163.942L87.224,163.959L87.214,163.976L87.204,163.992L87.193,164.009L87.182,164.025L87.171,164.042L87.148,164.074L87.137,164.09L87.125,164.106L87.113,164.121L87.101,164.137L87.089,164.152L87.077,164.168L87.052,164.198L87.039,164.213L87.026,164.228L87.013,164.242L87,164.257L86.987,164.271L86.973,164.286L86.96,164.3L86.932,164.328L86.918,164.342L86.904,164.355L86.89,164.369L86.875,164.382L86.846,164.408L86.831,164.421L86.816,164.434L86.801,164.446L86.786,164.459L86.755,164.483L86.724,164.507L86.708,164.519L86.692,164.53L86.676,164.542L86.643,164.564L86.627,164.575L86.611,164.585L86.594,164.596L86.56,164.616L86.544,164.627L86.527,164.636L86.492,164.656L86.44,164.683L86.405,164.701L86.351,164.725L86.315,164.741L86.297,164.749L86.242,164.77L86.205,164.784L86.187,164.79L86.168,164.797L86.131,164.809L86.112,164.814L86.093,164.82L86.036,164.835L85.998,164.845L85.902,164.865L85.805,164.88L85.785,164.882L85.766,164.885L85.727,164.889L85.707,164.89L85.688,164.892L85.609,164.896L85.57,164.896L85.55,164.897L85.53,164.897L85.511,164.896L85.491,164.896L85.413,164.892L85.393,164.89L85.373,164.889L85.315,164.883L85.276,164.877L85.256,164.875L85.237,164.872L85.218,164.868L85.198,164.865L85.179,164.861L85.16,164.858L85.14,164.854L85.121,164.849L85.102,164.845L85.083,164.84L85.064,164.836L85.026,164.826L85.007,164.82L84.988,164.815L84.932,164.797L84.913,164.791L84.895,164.784L84.876,164.778L84.821,164.757L84.803,164.749L84.785,164.742L84.749,164.726L84.713,164.71L84.695,164.701L84.678,164.693L84.642,164.675L84.625,164.666L84.608,164.656L84.591,164.647L84.556,164.627L84.523,164.607L84.506,164.597L84.489,164.586L84.473,164.576L84.44,164.554L84.424,164.543L84.408,164.531L84.392,164.52L84.361,164.496L84.329,164.472L84.299,164.448L84.269,164.422L84.254,164.409L84.225,164.383L84.21,164.37L84.196,164.356L84.182,164.343L84.168,164.329L84.154,164.315L84.126,164.287L84.113,164.273L84.1,164.258L84.086,164.244L84.073,164.229L84.06,164.214L84.035,164.184L84.022,164.169L84.01,164.154L83.998,164.138L83.986,164.123L83.963,164.091L83.94,164.059L83.929,164.043L83.918,164.027L83.907,164.01L83.896,163.994L83.885,163.977L83.875,163.961L83.855,163.927L83.845,163.91L83.835,163.893L83.826,163.876L83.816,163.858L83.807,163.841L83.798,163.823L59.418,115.975L46.445,90.513L29.758,57.765L26.798,51.955L23.723,53.523L21.478,45.843L9.647,51.872L9.627,51.882L9.609,51.89L9.591,51.899L9.573,51.907L9.555,51.915L9.537,51.923L9.519,51.931L9.501,51.938L9.483,51.946L9.465,51.953L9.446,51.96L9.428,51.967L9.409,51.973L9.391,51.98L9.372,51.986L9.354,51.992L9.335,51.998L9.316,52.004L9.297,52.009L9.278,52.015L9.259,52.02L9.24,52.025L9.221,52.03L9.202,52.034L9.183,52.038L9.164,52.043L9.144,52.047L9.125,52.05L9.106,52.054L9.086,52.057L9.067,52.061L9.048,52.064L9.028,52.067L9.009,52.069L8.989,52.072L8.97,52.074L8.95,52.076L8.931,52.078L8.891,52.081L8.872,52.082L8.833,52.084L8.813,52.085L8.793,52.085L8.774,52.086L8.754,52.086L8.734,52.086L8.715,52.085L8.695,52.085L8.675,52.084L8.656,52.083L8.636,52.082L8.616,52.081L8.577,52.078L8.558,52.076L8.519,52.072L8.499,52.069L8.48,52.066L8.46,52.064L8.441,52.061L8.421,52.057L8.402,52.054L8.383,52.05L8.363,52.046L8.344,52.042L8.325,52.038L8.306,52.034L8.287,52.029L8.268,52.024L8.249,52.019L8.23,52.014L8.211,52.009L8.192,52.003L8.173,51.998L8.154,51.992L8.136,51.986L8.117,51.979L8.099,51.973L8.08,51.966L8.062,51.959L8.043,51.952L8.025,51.945L8.007,51.938L7.989,51.93L7.971,51.923L7.953,51.915L7.935,51.907L7.917,51.898L7.899,51.89L7.881,51.881L7.846,51.863L7.829,51.854L7.812,51.845L7.795,51.835L7.777,51.826L7.76,51.816L7.744,51.806L7.727,51.795L7.71,51.785L7.693,51.775L7.677,51.764L7.661,51.753L7.644,51.742L7.628,51.731L7.612,51.719L7.596,51.708L7.58,51.696L7.565,51.685L7.549,51.673L7.534,51.66L7.518,51.648L7.488,51.623L7.473,51.61L7.458,51.597L7.443,51.584L7.429,51.571L7.414,51.558L7.4,51.544L7.386,51.531L7.372,51.517L7.358,51.503L7.344,51.489L7.331,51.475L7.317,51.461L7.304,51.446L7.291,51.432L7.278,51.417L7.265,51.402L7.252,51.387L7.239,51.372L7.227,51.357L7.215,51.342L7.203,51.326L7.191,51.31L7.179,51.295L7.167,51.279L7.156,51.263L7.144,51.247L7.133,51.231L7.122,51.215L7.111,51.198L7.1,51.182L7.09,51.165L7.08,51.148L7.069,51.132L7.059,51.115L7.049,51.098L7.04,51.081L7.03,51.063L7.021,51.046L7.012,51.029L7.003,51.011L6.994,50.994L6.985,50.976L6.977,50.958L6.969,50.94L6.96,50.923L6.953,50.905L6.945,50.887L6.937,50.868L6.93,50.85L6.923,50.832L6.916,50.814L6.909,50.795L6.902,50.777L6.896,50.758L6.889,50.739L6.883,50.721L6.877,50.702L6.872,50.683L6.866,50.664L6.861,50.645L6.856,50.626L6.851,50.607L6.846,50.588L6.841,50.569L6.837,50.55L6.833,50.531L6.829,50.512L6.825,50.492L6.821,50.473L6.818,50.454L6.815,50.434L6.811,50.415L6.809,50.395L6.806,50.376L6.804,50.356L6.801,50.337L6.799,50.317L6.797,50.298L6.796,50.278L6.794,50.259L6.793,50.239L6.792,50.219L6.791,50.2L6.79,50.18L6.79,50.161L6.789,50.141L6.789,50.121L6.789,50.102L6.79,50.082L6.79,50.062L6.791,50.043L6.792,50.023L6.793,50.003L6.794,49.984L6.795,49.964L6.797,49.945L6.799,49.925L6.801,49.905L6.803,49.886L6.806,49.866L6.808,49.847L6.811,49.828L6.814,49.808L6.817,49.789L6.821,49.769L6.824,49.75L6.828,49.731L6.832,49.712L6.836,49.692L6.841,49.673L6.845,49.654L6.85,49.635L6.855,49.616L6.86,49.597L6.866,49.578L6.871,49.559L6.877,49.54L6.883,49.522L6.889,49.503L6.895,49.484L6.901,49.466L6.908,49.447L6.915,49.429L6.922,49.41L6.929,49.392L6.937,49.374L6.944,49.356L6.952,49.338L6.96,49.32L6.968,49.302L6.976,49.284L6.985,49.266L6.993,49.249L7.002,49.231L7.011,49.214L7.02,49.196L7.029,49.179L7.039,49.162L7.049,49.145L7.058,49.128L7.068,49.111L7.079,49.094L7.089,49.077L7.1,49.061L7.11,49.044L7.121,49.028L7.132,49.011L7.143,48.995L7.155,48.979L7.166,48.963L7.178,48.947L7.19,48.932L7.201,48.916L7.214,48.901L7.226,48.885L7.238,48.87L7.251,48.855L7.264,48.84L7.276,48.825L7.29,48.81L7.303,48.796L7.316,48.781L7.329,48.767L7.343,48.753L7.357,48.739L7.371,48.725L7.399,48.697L7.413,48.684L7.428,48.671L7.442,48.657L7.457,48.644L7.472,48.632L7.487,48.619L7.502,48.606L7.517,48.594L7.532,48.581L7.548,48.569L7.563,48.557L7.579,48.545L7.595,48.534L7.611,48.522L7.627,48.511L7.643,48.5L7.659,48.489L7.676,48.478L7.692,48.467L7.709,48.457L7.725,48.446L7.742,48.436L7.759,48.426L7.776,48.416L7.793,48.406L7.81,48.397L7.828,48.387L7.845,48.378L7.862,48.369L20.12,42.123L19.6,41.254L19.105,40.414L18.633,39.603L18.185,38.82L17.76,38.064L17.357,37.334L16.975,36.631L16.69,36.096L16.417,35.576L16.156,35.072L15.906,34.582L15.669,34.106L15.442,33.644L15.226,33.196L15.045,32.815L14.872,32.444L14.707,32.082L14.549,31.73L14.398,31.388L14.254,31.054L14.116,30.729L13.985,30.413L13.854,30.091L13.729,29.778L13.611,29.474L13.499,29.178L13.392,28.891L13.291,28.611L13.186,28.315L13.088,28.028L12.995,27.749L12.906,27.479L12.823,27.216L12.744,26.961L12.67,26.713L12.573,26.384L12.483,26.066L12.398,25.76L12.318,25.465L12.209,25.059L12.105,24.671L12.004,24.297L11.903,23.936L11.798,23.584L11.762,23.469L11.726,23.354L11.689,23.24L11.651,23.127L11.612,23.014L11.571,22.901L11.539,22.813L11.506,22.725L11.472,22.636L11.437,22.548L11.402,22.46L11.365,22.372L11.327,22.284L11.289,22.195L11.249,22.106L11.208,22.017L11.166,21.928L11.123,21.839L11.081,21.754L11.038,21.669L10.994,21.583L10.948,21.497L10.902,21.411L10.858,21.332L10.813,21.252L10.767,21.172L10.72,21.092L10.672,21.01L10.622,20.929L10.572,20.847L10.514,20.755L10.455,20.663L10.395,20.57L10.332,20.477L10.269,20.382L10.195,20.275L10.119,20.167L10.041,20.058L9.961,19.948L9.878,19.836L9.793,19.722L9.706,19.607L9.615,19.491L9.509,19.356L9.4,19.219L9.287,19.08L9.17,18.939L9.05,18.795L8.886,18.603L8.716,18.407L8.54,18.206L8.342,17.985L8.137,17.759L7.923,17.527L7.7,17.289L7.468,17.045L7.107,16.669L6.724,16.279L6.319,15.872L5.893,15.449L5.443,15.009L4.969,14.551L4.946,14.505L4.926,14.466L4.907,14.425L4.888,14.385L4.87,14.345L4.852,14.304L4.835,14.263L4.818,14.223L4.801,14.181L4.785,14.14L4.769,14.099L4.754,14.057L4.739,14.015L4.724,13.974L4.71,13.932L4.696,13.889L4.683,13.847L4.67,13.805L4.658,13.762L4.646,13.719L4.634,13.677L4.623,13.634L4.612,13.591L4.602,13.547L4.592,13.504L4.583,13.461L4.574,13.418L4.565,13.374L4.557,13.33L4.549,13.287L4.542,13.243L4.535,13.199L4.529,13.155L4.523,13.111L4.517,13.067L4.512,13.023L4.507,12.979L4.503,12.935L4.5,12.891L4.496,12.847L4.493,12.802L4.491,12.758L4.489,12.714L4.487,12.669L4.486,12.625L4.486,12.581L4.485,12.536L4.486,12.492L4.486,12.448L4.487,12.403L4.489,12.359L4.491,12.315L4.494,12.271L4.496,12.226L4.5,12.182L4.504,12.138L4.508,12.094L4.512,12.05L4.518,12.006L4.523,11.962L4.529,11.918L4.535,11.874L4.542,11.83L4.55,11.786L4.557,11.743L4.566,11.699L4.574,11.655L4.583,11.612L4.593,11.569L4.603,11.525L4.613,11.482L4.624,11.439L4.635,11.396L4.647,11.354L4.659,11.311L4.671,11.268L4.684,11.226L4.697,11.184L4.711,11.142L4.725,11.1L4.74,11.058L4.755,11.016L4.77,10.974L4.786,10.933L4.802,10.892L4.819,10.851L4.836,10.81L4.854,10.769L4.871,10.728L4.89,10.688L4.908,10.648L4.928,10.608L4.947,10.568L4.967,10.528L4.987,10.489L5.008,10.45L5.029,10.411L5.051,10.372L5.072,10.333L5.095,10.295L5.117,10.257L5.14,10.219L5.164,10.181L5.187,10.144L5.212,10.106L5.236,10.07L5.261,10.033L5.286,9.996L5.312,9.96L5.338,9.924L5.364,9.888L5.391,9.853L5.418,9.818L5.445,9.783L5.473,9.748L5.501,9.714L5.529,9.68L5.558,9.646L5.587,9.613L5.617,9.58L5.646,9.547L5.676,9.514L5.707,9.482L5.737,9.45L5.769,9.418L5.8,9.387L5.832,9.356L5.864,9.325L5.896,9.295L5.928,9.265L5.961,9.235L5.994,9.205L6.028,9.176L6.062,9.147L6.096,9.119L6.13,9.091L6.165,9.063L6.2,9.036L6.235,9.009L6.27,8.982L6.306,8.956L6.342,8.93L6.378,8.904L6.414,8.879L6.451,8.854L6.488,8.83L6.525,8.806L6.563,8.782L6.6,8.758L6.638,8.735L6.676,8.713L6.715,8.691L6.753,8.669L6.792,8.647L6.831,8.626L6.87,8.605L6.91,8.585L6.95,8.565L6.989,8.546L7.029,8.527L7.07,8.508L7.11,8.49L7.151,8.472L7.191,8.454L7.232,8.437L7.273,8.42L7.315,8.404L7.356,8.388L7.398,8.373L7.439,8.358L7.481,8.343L7.523,8.329L7.565,8.315L7.608,8.302L7.65,8.289L7.693,8.277L7.735,8.265L7.778,8.253L7.821,8.242L7.864,8.231L7.907,8.221L7.95,8.211L7.994,8.201L8.037,8.192L8.081,8.184L8.124,8.175L8.168,8.168L8.212,8.16L8.255,8.153L8.299,8.147L8.343,8.141L8.387,8.136L8.431,8.13L8.475,8.126L8.519,8.122L8.564,8.118L8.608,8.114L8.652,8.111L8.696,8.109L8.741,8.107L8.785,8.105L8.829,8.104L8.874,8.104L8.918,8.103L8.962,8.104L9.007,8.104L9.051,8.105L9.095,8.107L9.14,8.109L9.184,8.111L9.228,8.114L9.272,8.117L9.317,8.121L9.361,8.125L9.405,8.13L9.449,8.135L9.493,8.141L9.537,8.147L9.581,8.153L9.625,8.16L9.668,8.167L9.712,8.175L9.756,8.183L9.799,8.191L9.843,8.2L9.886,8.21L9.929,8.22L9.972,8.23L10.015,8.241L10.058,8.252L10.101,8.264L10.144,8.276L10.186,8.288L10.229,8.301L10.271,8.314L10.313,8.328L10.355,8.342L10.397,8.357L10.439,8.372L10.48,8.387L10.522,8.403L10.563,8.419L10.604,8.436L10.645,8.453L10.686,8.47L10.727,8.488L10.767,8.506L10.807,8.525L10.847,8.544L10.887,8.564L10.927,8.583L10.966,8.604L11.005,8.624L11.044,8.645L11.083,8.667L11.122,8.689L11.16,8.711L11.198,8.733L11.236,8.756L11.274,8.78L11.311,8.803L11.349,8.828L11.386,8.852L11.422,8.877L11.459,8.902L11.495,8.928L11.531,8.954L11.567,8.98L11.602,9.007L11.637,9.034L11.672,9.061L11.707,9.089L11.741,9.117L11.775,9.145L11.809,9.174L11.843,9.203L11.876,9.232L11.909,9.262L11.941,9.292L11.974,9.322L12.006,9.353L12.037,9.384L12.069,9.415L12.1,9.447L12.131,9.479L12.161,9.511L12.191,9.544L12.221,9.577L12.25,9.61L12.279,9.643L12.308,9.677L12.337,9.711L12.365,9.745L12.393,9.78L12.42,9.815L12.447,9.85L12.474,9.885L12.5,9.921L12.526,9.957L12.552,9.993L12.577,10.03L12.602,10.066L12.626,10.103L12.65,10.14L12.674,10.178L12.698,10.215L12.721,10.253L12.743,10.291L12.766,10.33L12.788,10.368L12.809,10.407L12.83,10.446L12.851,10.485L12.871,10.525L12.963,11.177L13.055,11.8L13.146,12.394L13.237,12.96L13.328,13.499L13.419,14.013L13.481,14.344L13.543,14.664L13.605,14.973L13.667,15.273L13.729,15.562L13.788,15.823L13.847,16.076L13.906,16.321L13.951,16.503L13.997,16.68L14.043,16.853L14.09,17.023L14.136,17.187L14.178,17.329L14.219,17.467L14.261,17.603L14.303,17.735L14.345,17.865L14.387,17.993L14.43,18.117L14.473,18.24L14.512,18.347L14.552,18.452L14.591,18.556L14.631,18.658L14.671,18.758L14.708,18.847L14.745,18.935L14.782,19.022L14.819,19.107L14.857,19.192L14.895,19.275L14.934,19.356L14.976,19.445L15.019,19.532L15.062,19.619L15.106,19.703L15.15,19.787L15.197,19.875L15.244,19.961L15.292,20.047L15.341,20.131L15.389,20.214L15.439,20.296L15.489,20.378L15.539,20.458L15.59,20.538L15.641,20.618L15.693,20.696L15.746,20.774L15.813,20.873L15.882,20.971L15.951,21.069L16.021,21.166L16.092,21.263L16.165,21.359L16.388,21.65L16.621,21.945L16.863,22.247L17.117,22.559L17.381,22.885L17.573,23.124L17.77,23.372L17.974,23.632L18.184,23.904L18.341,24.11L18.501,24.323L18.664,24.545L18.831,24.775L19.002,25.014L19.176,25.263L19.355,25.522L19.521,25.768L19.691,26.023L19.864,26.288L20.041,26.562L20.221,26.847L20.405,27.142L20.583,27.434L20.765,27.737L20.95,28.049L21.138,28.373L21.33,28.708L21.525,29.054L21.724,29.412L21.926,29.782L22.162,30.22L22.402,30.675L22.647,31.147L22.897,31.637L23.152,32.145L23.412,32.671L23.677,33.216L24.021,33.939L24.375,34.694L24.736,35.482L25.107,36.305L25.486,37.163L25.874,38.057L26.272,38.989L38.53,32.743Z" style="fill:none;stroke:black;stroke-width:1.06px;"/>
                </g>
            </g>
            <g id="Sword.svg2" serif:id="Sword.svg">
            </g>
        </g>
    </g>
    <g transform="matrix(1.95556,0,0,1.95652,-2263.64,-1899.01)">
        <path d="M1976.23,1200.75C2070.17,1200.75 2156.09,1236.11 2221.94,1294.51C2301.27,1364.86 2351.47,1468.65 2351.47,1584.32C2351.47,1796.02 2183.33,1967.9 1976.23,1967.9C1769.14,1967.9 1601,1796.02 1601,1584.32C1601,1372.62 1769.14,1200.75 1976.23,1200.75ZM1976.23,1457.87C2044.51,1457.87 2099.93,1514.53 2099.93,1584.32C2099.93,1654.11 2044.51,1710.77 1976.23,1710.77C1907.96,1710.77 1852.53,1654.11 1852.53,1584.32C1852.53,1514.53 1907.96,1457.87 1976.23,1457.87Z" style="fill:url(#_Linear1);"/>
    </g>
    <g id="Layer3">
    </g>
    <defs>
        <linearGradient id="_Linear1" x1="0" y1="0" x2="1" y2="0" gradientUnits="userSpaceOnUse" gradientTransform="matrix(42.6403,34.0954,-34.1122,42.6192,1925.07,1584.32)"><stop offset="0" style="stop-color:rgb(133,169,244);stop-opacity:1"/><stop offset="1" style="stop-color:rgb(133,169,244);stop-opacity:0"/></linearGradient>
    </defs>
</svg>
